<mxfile host="app.diagrams.net" modified="2023-05-25T03:53:45.695Z" agent="Mozilla/5.0 (Windows NT 10.0; Win64; x64) AppleWebKit/537.36 (KHTML, like Gecko) Chrome/110.0.0.0 Safari/537.36" version="21.3.3" etag="cRER31GC0Ul-80JfvS1U" type="github">
  <diagram name="第 1 页" id="VdSdIEvv7PSAs17GggIs">
    <mxGraphModel>
      <root>
        <mxCell id="0" />
        <mxCell id="1" parent="0" />
      </root>
    </mxGraphModel>
  </diagram>
</mxfile>
